<?xml version="1.0" encoding="UTF-8"?>
<svg width="327px" height="424px" viewBox="0 0 982 1273" version="1.1" xmlns="http://www.w3.org/2000/svg" xmlns:xlink="http://www.w3.org/1999/xlink">
    <!-- Generator: Sketch 55.2 (78181) - https://sketchapp.com -->
    <title>logo</title>
    <desc>Created with Sketch.</desc>
    <g id="logo" stroke="none" stroke-width="1" fill="none" fill-rule="evenodd">
        <g id="Flat" transform="translate(29.000000, 34.000000)">
            <rect id="Rectangle" stroke="#000000" stroke-width="45" x="22.5" y="22.5" width="877" height="1165"></rect>
            <path d="M345.6,480.5 L345.6,821 L247.2,821 L247.2,480.5 L130.5,480.5 L130.5,405.2 L467.1,405.2 L456.9,480.5 L345.6,480.5 Z M602.4,404.375 L602.4,557.825 C614.683395,544.808268 628.020761,535.137532 642.4125,528.8125 C656.804239,522.487468 672.066586,519.325 688.2,519.325 C714.233464,519.325 734.124931,526.933257 747.875,542.15 C761.625069,557.366743 768.5,578.816528 768.5,606.5 L768.5,821 L681.6,821 L681.6,630.7 C681.6,613.099912 679.629186,600.816702 675.6875,593.85 C671.745814,586.883299 664.366721,583.4 653.55,583.4 C647.49997,583.4 641.587529,584.820819 635.8125,587.6625 C630.037471,590.504181 624.400027,594.583307 618.9,599.9 C613.399972,605.216693 607.900027,611.54163 602.4,618.875 L602.4,821 L515.5,821 L515.5,412.9 L602.4,404.375 Z" id="Th" fill="#000000" fill-rule="nonzero"></path>
            <path d="M415.7,132.3 L415.7,266 L398.9,266 L398.9,150.5 L367.3,169.7 L360,157.7 L401,132.3 L415.7,132.3 Z M444.5,256.3 L444.5,270 L365,270 L365,256.3 L444.5,256.3 Z M515.8,130.1 L529.8,136 L493.2,223.1 L566.7,223.1 L566.7,236.5 L475.4,236.5 L475.4,224.3 L515.8,130.1 Z M548.9,184 L548.9,270 L532.7,270 L532.6,226.3 L534.9,184 L548.9,184 Z" id="14" fill="#000000" fill-rule="nonzero"></path>
            <path d="M141.98,980.32 L141.98,1054 L131.6,1054 L131.6,980.32 L105.8,980.32 L105.8,971.38 L168.14,971.38 L167.06,980.32 L141.98,980.32 Z M230.3,1040.2 C230.3,1042.72001 230.72,1044.55999 231.56,1045.72 C232.400004,1046.88001 233.699991,1047.74 235.46,1048.3 L233,1055.38 C230.279986,1055.02 227.90001,1054.15001 225.86,1052.77 C223.81999,1051.38999 222.340005,1049.30001 221.42,1046.5 C219.139989,1049.42001 216.300017,1051.62999 212.9,1053.13 C209.499983,1054.63001 205.740021,1055.38 201.62,1055.38 C195.299968,1055.38 190.320018,1053.60002 186.68,1050.04 C183.039982,1046.47998 181.22,1041.76003 181.22,1035.88 C181.22,1029.35997 183.759975,1024.36002 188.84,1020.88 C193.920025,1017.39998 201.259952,1015.66 210.86,1015.66 L220.16,1015.66 L220.16,1010.38 C220.16,1005.81998 218.830013,1002.59001 216.17,1000.69 C213.509987,998.789991 209.820024,997.84 205.1,997.84 C203.01999,997.84 200.580014,998.089997 197.78,998.59 C194.979986,999.090002 191.940016,999.919994 188.66,1001.08 L186.02,993.46 C189.900019,992.019993 193.539983,991 196.94,990.4 C200.340017,989.799997 203.579985,989.5 206.66,989.5 C214.540039,989.5 220.44998,991.329982 224.39,994.99 C228.33002,998.650018 230.3,1003.61997 230.3,1009.9 L230.3,1040.2 Z M204.2,1047.7 C207.320016,1047.7 210.299986,1046.91001 213.14,1045.33 C215.980014,1043.74999 218.319991,1041.56001 220.16,1038.76 L220.16,1022.5 L211.04,1022.5 C204.079965,1022.5 199.170014,1023.69999 196.31,1026.1 C193.449986,1028.50001 192.02,1031.71998 192.02,1035.76 C192.02,1039.68002 193.02999,1042.64999 195.05,1044.67 C197.07001,1046.69001 200.11998,1047.7 204.2,1047.7 Z M298.7,989.5 C300.74001,989.5 302.689991,989.939996 304.55,990.82 C306.410009,991.700004 307.939994,993.399987 309.14,995.92 C310.340006,998.440013 310.94,1002.11998 310.94,1006.96 L310.94,1054 L301.58,1054 L301.58,1008.58 C301.58,1004.61998 301.340002,1001.76001 300.86,1000 C300.379998,998.239991 299.000011,997.36 296.72,997.36 C294.839991,997.36 292.970009,997.949994 291.11,999.13 C289.249991,1000.31001 287.440009,1002.23999 285.68,1004.92 L285.68,1054 L276.26,1054 L276.26,1008.58 C276.26,1004.61998 276.020002,1001.76001 275.54,1000 C275.06,998.239991 273.680011,997.36 271.4,997.36 C269.43999,997.36 267.550009,997.949994 265.73,999.13 C263.909991,1000.31001 262.120009,1002.23999 260.36,1004.92 L260.36,1054 L251.06,1054 L251.06,990.82 L258.98,990.82 L259.58,998.14 C261.300009,995.699988 263.229989,993.650008 265.37,991.99 C267.510011,990.329992 270.159984,989.5 273.32,989.5 C275.720012,989.5 277.979989,990.069994 280.1,991.21 C282.220011,992.350006 283.779995,994.559984 284.78,997.84 C286.500009,995.359988 288.439989,993.350008 290.6,991.81 C292.760011,990.269992 295.459984,989.5 298.7,989.5 Z M374.3,1040.2 C374.3,1042.72001 374.72,1044.55999 375.56,1045.72 C376.400004,1046.88001 377.699991,1047.74 379.46,1048.3 L377,1055.38 C374.279986,1055.02 371.90001,1054.15001 369.86,1052.77 C367.81999,1051.38999 366.340005,1049.30001 365.42,1046.5 C363.139989,1049.42001 360.300017,1051.62999 356.9,1053.13 C353.499983,1054.63001 349.740021,1055.38 345.62,1055.38 C339.299968,1055.38 334.320018,1053.60002 330.68,1050.04 C327.039982,1046.47998 325.22,1041.76003 325.22,1035.88 C325.22,1029.35997 327.759975,1024.36002 332.84,1020.88 C337.920025,1017.39998 345.259952,1015.66 354.86,1015.66 L364.16,1015.66 L364.16,1010.38 C364.16,1005.81998 362.830013,1002.59001 360.17,1000.69 C357.509987,998.789991 353.820024,997.84 349.1,997.84 C347.01999,997.84 344.580014,998.089997 341.78,998.59 C338.979986,999.090002 335.940016,999.919994 332.66,1001.08 L330.02,993.46 C333.900019,992.019993 337.539983,991 340.94,990.4 C344.340017,989.799997 347.579985,989.5 350.66,989.5 C358.540039,989.5 364.44998,991.329982 368.39,994.99 C372.33002,998.650018 374.3,1003.61997 374.3,1009.9 L374.3,1040.2 Z M348.2,1047.7 C351.320016,1047.7 354.299986,1046.91001 357.14,1045.33 C359.980014,1043.74999 362.319991,1041.56001 364.16,1038.76 L364.16,1022.5 L355.04,1022.5 C348.079965,1022.5 343.170014,1023.69999 340.31,1026.1 C337.449986,1028.50001 336.02,1031.71998 336.02,1035.76 C336.02,1039.68002 337.02999,1042.64999 339.05,1044.67 C341.07001,1046.69001 344.11998,1047.7 348.2,1047.7 Z M411.14,964.42 L411.14,999.46 C413.620012,996.139983 416.669982,993.650008 420.29,991.99 C423.910018,990.329992 427.579981,989.5 431.3,989.5 C437.460031,989.5 441.959986,991.139984 444.8,994.42 C447.640014,997.700016 449.06,1002.25997 449.06,1008.1 L449.06,1054 L438.98,1054 L438.98,1008.34 C438.98,1004.53998 438.100009,1001.77001 436.34,1000.03 C434.579991,998.289991 431.820019,997.42 428.06,997.42 C425.659988,997.42 423.380011,997.959995 421.22,999.04 C419.059989,1000.12001 417.120009,1001.45999 415.4,1003.06 C413.679991,1004.66001 412.260006,1006.29999 411.14,1007.98 L411.14,1054 L401.06,1054 L401.06,965.5 L411.14,964.42 Z M518.3,1040.2 C518.3,1042.72001 518.72,1044.55999 519.56,1045.72 C520.400004,1046.88001 521.699991,1047.74 523.46,1048.3 L521,1055.38 C518.279986,1055.02 515.90001,1054.15001 513.86,1052.77 C511.81999,1051.38999 510.340005,1049.30001 509.42,1046.5 C507.139989,1049.42001 504.300017,1051.62999 500.9,1053.13 C497.499983,1054.63001 493.740021,1055.38 489.62,1055.38 C483.299968,1055.38 478.320018,1053.60002 474.68,1050.04 C471.039982,1046.47998 469.22,1041.76003 469.22,1035.88 C469.22,1029.35997 471.759975,1024.36002 476.84,1020.88 C481.920025,1017.39998 489.259952,1015.66 498.86,1015.66 L508.16,1015.66 L508.16,1010.38 C508.16,1005.81998 506.830013,1002.59001 504.17,1000.69 C501.509987,998.789991 497.820024,997.84 493.1,997.84 C491.01999,997.84 488.580014,998.089997 485.78,998.59 C482.979986,999.090002 479.940016,999.919994 476.66,1001.08 L474.02,993.46 C477.900019,992.019993 481.539983,991 484.94,990.4 C488.340017,989.799997 491.579985,989.5 494.66,989.5 C502.540039,989.5 508.44998,991.329982 512.39,994.99 C516.33002,998.650018 518.3,1003.61997 518.3,1009.9 L518.3,1040.2 Z M492.2,1047.7 C495.320016,1047.7 498.299986,1046.91001 501.14,1045.33 C503.980014,1043.74999 506.319991,1041.56001 508.16,1038.76 L508.16,1022.5 L499.04,1022.5 C492.079965,1022.5 487.170014,1023.69999 484.31,1026.1 C481.449986,1028.50001 480.02,1031.71998 480.02,1035.76 C480.02,1039.68002 481.02999,1042.64999 483.05,1044.67 C485.07001,1046.69001 488.11998,1047.7 492.2,1047.7 Z M596.42,984.1 L599.54,993.58 C596.859987,994.420004 594.000015,994.939999 590.96,995.14 C587.919985,995.340001 584.620018,995.44 581.06,995.44 C584.700018,997.120008 587.439991,999.289987 589.28,1001.95 C591.120009,1004.61001 592.04,1007.73998 592.04,1011.34 C592.04,1015.50002 591.100009,1019.19998 589.22,1022.44 C587.339991,1025.68002 584.630018,1028.21999 581.09,1030.06 C577.549982,1031.90001 573.280025,1032.82 568.28,1032.82 C566.159989,1032.82 564.390007,1032.72 562.97,1032.52 C561.549993,1032.32 560.180007,1032.02 558.86,1031.62 C557.899995,1032.26 557.110003,1033.13999 556.49,1034.26 C555.869997,1035.38001 555.56,1036.53999 555.56,1037.74 C555.56,1039.26001 556.159994,1040.52 557.36,1041.52 C558.560006,1042.52001 560.779984,1043.02 564.02,1043.02 L575.42,1043.02 C579.660021,1043.02 583.469983,1043.77999 586.85,1045.3 C590.230017,1046.82001 592.88999,1048.85999 594.83,1051.42 C596.77001,1053.98001 597.74,1056.89998 597.74,1060.18 C597.74,1066.38003 595.110026,1071.13998 589.85,1074.46 C584.589974,1077.78002 577.160048,1079.44 567.56,1079.44 C560.839966,1079.44 555.540019,1078.75001 551.66,1077.37 C547.779981,1075.98999 545.010008,1073.89001 543.35,1071.07 C541.689992,1068.24999 540.86,1064.70002 540.86,1060.42 L549.98,1060.42 C549.98,1062.86001 550.459995,1064.87999 551.42,1066.48 C552.380005,1068.08001 554.119987,1069.27 556.64,1070.05 C559.160013,1070.83 562.779976,1071.22 567.5,1071.22 C572.140023,1071.22 575.929985,1070.83 578.87,1070.05 C581.810015,1069.27 583.989993,1068.11001 585.41,1066.57 C586.830007,1065.02999 587.54,1063.12001 587.54,1060.84 C587.54,1057.83999 586.180014,1055.58001 583.46,1054.06 C580.739986,1052.53999 577.34002,1051.78 573.26,1051.78 L561.98,1051.78 C556.539973,1051.78 552.530013,1050.58001 549.95,1048.18 C547.369987,1045.77999 546.08,1043.02002 546.08,1039.9 C546.08,1037.85999 546.669994,1035.88001 547.85,1033.96 C549.030006,1032.03999 550.759989,1030.34001 553.04,1028.86 C549.399982,1026.93999 546.720009,1024.56001 545,1021.72 C543.279991,1018.87999 542.42,1015.44002 542.42,1011.4 C542.42,1007.11998 543.479989,1003.33002 545.6,1000.03 C547.720011,996.729984 550.679981,994.140009 554.48,992.26 C558.280019,990.379991 562.659975,989.44 567.62,989.44 C572.940027,989.4 577.259983,989.170002 580.58,988.75 C583.900017,988.329998 586.749988,987.720004 589.13,986.92 C591.510012,986.119996 593.939988,985.180005 596.42,984.1 Z M567.62,996.82 C562.539975,996.82 558.790012,998.189986 556.37,1000.93 C553.949988,1003.67001 552.74,1007.15998 552.74,1011.4 C552.74,1015.68002 553.979988,1019.19999 556.46,1021.96 C558.940012,1024.72001 562.739974,1026.1 567.86,1026.1 C572.340022,1026.1 575.749988,1024.80001 578.09,1022.2 C580.430012,1019.59999 581.6,1015.98002 581.6,1011.34 C581.6,1006.57998 580.430012,1002.97001 578.09,1000.51 C575.749988,998.049988 572.260023,996.82 567.62,996.82 Z M662.3,1040.2 C662.3,1042.72001 662.72,1044.55999 663.56,1045.72 C664.400004,1046.88001 665.699991,1047.74 667.46,1048.3 L665,1055.38 C662.279986,1055.02 659.90001,1054.15001 657.86,1052.77 C655.81999,1051.38999 654.340005,1049.30001 653.42,1046.5 C651.139989,1049.42001 648.300017,1051.62999 644.9,1053.13 C641.499983,1054.63001 637.740021,1055.38 633.62,1055.38 C627.299968,1055.38 622.320018,1053.60002 618.68,1050.04 C615.039982,1046.47998 613.22,1041.76003 613.22,1035.88 C613.22,1029.35997 615.759975,1024.36002 620.84,1020.88 C625.920025,1017.39998 633.259952,1015.66 642.86,1015.66 L652.16,1015.66 L652.16,1010.38 C652.16,1005.81998 650.830013,1002.59001 648.17,1000.69 C645.509987,998.789991 641.820024,997.84 637.1,997.84 C635.01999,997.84 632.580014,998.089997 629.78,998.59 C626.979986,999.090002 623.940016,999.919994 620.66,1001.08 L618.02,993.46 C621.900019,992.019993 625.539983,991 628.94,990.4 C632.340017,989.799997 635.579985,989.5 638.66,989.5 C646.540039,989.5 652.44998,991.329982 656.39,994.99 C660.33002,998.650018 662.3,1003.61997 662.3,1009.9 L662.3,1040.2 Z M636.2,1047.7 C639.320016,1047.7 642.299986,1046.91001 645.14,1045.33 C647.980014,1043.74999 650.319991,1041.56001 652.16,1038.76 L652.16,1022.5 L643.04,1022.5 C636.079965,1022.5 631.170014,1023.69999 628.31,1026.1 C625.449986,1028.50001 624.02,1031.71998 624.02,1035.76 C624.02,1039.68002 625.02999,1042.64999 627.05,1044.67 C629.07001,1046.69001 632.11998,1047.7 636.2,1047.7 Z M689.06,1054 L689.06,990.82 L697.64,990.82 L698.42,999.58 C700.980013,996.339984 704.189981,993.850009 708.05,992.11 C711.910019,990.369991 715.659982,989.5 719.3,989.5 C725.500031,989.5 730.009986,991.139984 732.83,994.42 C735.650014,997.700016 737.06,1002.25997 737.06,1008.1 L737.06,1054 L726.98,1054 L726.98,1015.54 C726.98,1011.21998 726.740002,1007.73001 726.26,1005.07 C725.779998,1002.40999 724.780008,1000.47001 723.26,999.25 C721.739992,998.029994 719.380016,997.42 716.18,997.42 C713.699988,997.42 711.370011,997.959995 709.19,999.04 C707.009989,1000.12001 705.070008,1001.46999 703.37,1003.09 C701.669992,1004.71001 700.260006,1006.33999 699.14,1007.98 L699.14,1054 L689.06,1054 Z M768.98,1025.98 C769.180001,1030.86002 770.119992,1034.84998 771.8,1037.95 C773.480008,1041.05002 775.699986,1043.32999 778.46,1044.79 C781.220014,1046.25001 784.219984,1046.98 787.46,1046.98 C790.700016,1046.98 793.629987,1046.5 796.25,1045.54 C798.870013,1044.58 801.559986,1043.16001 804.32,1041.28 L809.06,1047.94 C806.099985,1050.26001 802.730019,1052.07999 798.95,1053.4 C795.169981,1054.72001 791.30002,1055.38 787.34,1055.38 C781.219969,1055.38 776.000022,1054.00001 771.68,1051.24 C767.359978,1048.47999 764.070011,1044.63002 761.81,1039.69 C759.549989,1034.74998 758.42,1029.02003 758.42,1022.5 C758.42,1016.09997 759.559989,1010.42002 761.84,1005.46 C764.120011,1000.49998 767.319979,996.600014 771.44,993.76 C775.560021,990.919986 780.419972,989.5 786.02,989.5 C791.340027,989.5 795.919981,990.749987 799.76,993.25 C803.600019,995.750013 806.54999,999.309977 808.61,1003.93 C810.67001,1008.55002 811.7,1014.05997 811.7,1020.46 C811.7,1021.54001 811.68,1022.55 811.64,1023.49 C811.6,1024.43 811.54,1025.26 811.46,1025.98 L768.98,1025.98 Z M786.14,997.78 C781.459977,997.78 777.550016,999.439983 774.41,1002.76 C771.269984,1006.08002 769.480002,1011.21997 769.04,1018.18 L801.98,1018.18 C801.859999,1011.41997 800.380014,1006.33002 797.54,1002.91 C794.699986,999.489983 790.900024,997.78 786.14,997.78 Z" id="Tamahagane" fill="#000000" fill-rule="nonzero"></path>
        </g>
    </g>
</svg>