<?xml version="1.0" encoding="UTF-8"?>
<svg width="1938px" height="631px" viewBox="0 0 1938 631" version="1.1" xmlns="http://www.w3.org/2000/svg" xmlns:xlink="http://www.w3.org/1999/xlink">
    <title>Logo</title>
    <defs>
        <path d="M331.51416,135.490234 L331.51416,164.490234 L267.51416,164.490234 L267.51416,135.490234 L331.51416,135.490234 Z M469.51416,144.490234 L469.51416,163.490234 L434.51416,163.490234 L434.51416,144.490234 L469.51416,144.490234 Z M1119.51416,82.4902344 L1161.51416,116.490234 L1161.51416,163.490234 L1107.51416,144.490234 L1119.51416,82.4902344 Z M1381.51416,144.490234 L1381.51416,161.490234 L1313.51416,161.490234 L1313.51416,144.490234 L1381.51416,144.490234 Z M820.51416,144.490234 L820.51416,154.490234 L773.51416,154.490234 L773.51416,144.490234 L820.51416,144.490234 Z M228.51416,54.4902344 L228.51416,128.490234 L175.51416,128.490234 L175.51416,54.4902344 L228.51416,54.4902344 Z M418.51416,111.490234 L418.51416,128.490234 L381.51416,128.490234 L381.51416,111.490234 L418.51416,111.490234 Z M926.51416,111.490234 L926.51416,128.490234 L881.51416,128.490234 L881.51416,111.490234 L926.51416,111.490234 Z M92.5141602,68.4902344 L92.5141602,106.490234 L54.5141602,106.490234 L54.5141602,68.4902344 L92.5141602,68.4902344 Z M563.51416,38.4902344 L563.51416,101.490234 L535.800982,101.490234 L535.800982,73.4902344 L421,70 L420.51416,38.4902344 L563.51416,38.4902344 Z M1175.51416,46.4902344 L1175.51416,91.4902344 L1155.51416,91.4902344 L1155.51416,46.4902344 L1175.51416,46.4902344 Z M1354.51416,70.4902344 L1354.51416,83.4902344 L1290.51416,83.4902344 L1290.51416,70.4902344 L1354.51416,70.4902344 Z M671.51416,38.4902344 L671.51416,82.4902344 L658.51416,82.4902344 L658.51416,38.4902344 L671.51416,38.4902344 Z M1027.51416,38.4902344 L1027.51416,82.4902344 L1012.51416,82.4902344 L1012.51416,38.4902344 L1027.51416,38.4902344 Z M351.51416,46.4902344 L351.51416,78.4902344 L331.51416,78.4902344 L331.51416,46.4902344 L351.51416,46.4902344 Z M79.5141602,38.4902344 L79.5141602,54.4902344 L0.514160156,54.4902344 L0.514160156,38.4902344 L79.5141602,38.4902344 Z M127.51416,0.490234375 L127.51416,46.4902344 L114.51416,46.4902344 L114.51416,0.490234375 L127.51416,0.490234375 Z" id="path-1"></path>
    </defs>
    <g id="Logo" stroke="none" stroke-width="1" fill="none" fill-rule="evenodd">
        <path d="M1401,44 L1091.06907,555 L0,555 L309.930931,44 L1401,44 Z M628.8,99 C621.733333,99 615.45,100.5 609.95,103.5 C604.45,106.5 600.183333,110.716667 597.15,116.15 C594.116667,121.583333 592.6,127.866667 592.6,135 C592.6,142.133333 594.116667,148.416667 597.15,153.85 C600.183333,159.283333 604.45,163.5 609.95,166.5 C615.45,169.5 621.733333,171 628.8,171 C635.866667,171 642.15,169.5 647.65,166.5 C653.15,163.5 657.416667,159.283333 660.45,153.85 C663.483333,148.416667 665,142.133333 665,135 C665,127.866667 663.483333,121.583333 660.45,116.15 C657.416667,110.716667 653.15,106.5 647.65,103.5 C642.15,100.5 635.866667,99 628.8,99 Z M725.1,100 L672.2,100 C669.066667,100 667.5,101.3 667.5,103.9 C667.5,105.1 667.916667,106.016667 668.75,106.65 C669.52381,107.238095 670.570663,107.553146 671.890561,107.595153 L672.2,107.6 L693.9,107.6 L693.9,166.3 C693.9,167.766667 694.3,168.916667 695.1,169.75 C695.9,170.583333 697.033333,171 698.5,171 C700.033333,171 701.233333,170.583333 702.1,169.75 C702.908889,168.972222 703.340296,167.918593 703.394222,166.589111 L703.4,166.3 L703.4,107.6 L725.1,107.6 C726.566667,107.6 727.7,107.266667 728.5,106.6 C729.3,105.933333 729.7,105.033333 729.7,103.9 C729.7,102.633333 729.3,101.666667 728.5,101 C727.757143,100.380952 726.726871,100.04932 725.409184,100.005102 L725.1,100 Z M797.2,99 C793.133333,99 789.433333,99.9833333 786.1,101.95 C782.766667,103.916667 780.133333,106.666667 778.2,110.2 C776.266667,106.733333 773.6,104 770.2,102 C766.8,100 763.1,99 759.1,99 C751.833333,99 746.15,101.083333 742.05,105.25 C738.05,109.315041 736.00122,114.887121 735.903659,121.96624 L735.9,122.5 L735.9,166.3 C735.9,167.766667 736.316667,168.916667 737.15,169.75 C737.983333,170.583333 739.1,171 740.5,171 C741.966667,171 743.133333,170.583333 744,169.75 C744.808889,168.972222 745.240296,167.918593 745.294222,166.589111 L745.3,166.3 L745.3,122.5 C745.3,117.3 746.4,113.383333 748.6,110.75 C750.8,108.116667 754.4,106.8 759.4,106.8 C763.733333,106.8 767.183333,108.216667 769.75,111.05 C772.231111,113.788889 773.513019,117.446648 773.595722,122.023278 L773.6,122.5 L773.6,166.3 C773.6,167.766667 774,168.916667 774.8,169.75 C775.6,170.583333 776.733333,171 778.2,171 C779.6,171 780.716667,170.583333 781.55,169.75 C782.327778,168.972222 782.742593,167.918593 782.794444,166.589111 L782.8,166.3 L782.8,122.5 C782.8,117.566667 784.05,113.716667 786.55,110.95 C789.05,108.183333 792.5,106.8 796.9,106.8 C801.966667,106.8 805.6,108.1 807.8,110.7 C809.929032,113.216129 811.027888,116.980957 811.096566,121.994485 L811.1,122.5 L811.1,166.3 C811.1,167.766667 811.5,168.916667 812.3,169.75 C813.1,170.583333 814.233333,171 815.7,171 C817.166667,171 818.333333,170.583333 819.2,169.75 C820.008889,168.972222 820.440296,167.918593 820.494222,166.589111 L820.5,166.3 L820.5,122.5 C820.5,115.166667 818.433333,109.416667 814.3,105.25 C810.166667,101.083333 804.466667,99 797.2,99 Z M890,99 C888.533333,99 887.366667,99.4166667 886.5,100.25 C885.691111,101.027778 885.259704,102.081407 885.205778,103.410889 L885.2,103.7 L885.2,130.2 L844,130.2 L844,103.7 C844,102.233333 843.566667,101.083333 842.7,100.25 C841.833333,99.4166667 840.666667,99 839.2,99 C837.733333,99 836.583333,99.4166667 835.75,100.25 C834.972222,101.027778 834.557407,102.081407 834.505556,103.410889 L834.5,103.7 L834.5,166.3 C834.5,167.766667 834.916667,168.916667 835.75,169.75 C836.583333,170.583333 837.733333,171 839.2,171 C840.666667,171 841.833333,170.583333 842.7,169.75 C843.508889,168.972222 843.940296,167.918593 843.994222,166.589111 L844,166.3 L844,137.9 L885.2,137.9 L885.2,166.3 C885.2,167.766667 885.633333,168.916667 886.5,169.75 C887.366667,170.583333 888.533333,171 890,171 C891.4,171 892.516667,170.583333 893.35,169.75 C894.127778,168.972222 894.542593,167.918593 894.594444,166.589111 L894.6,166.3 L894.6,103.7 C894.6,102.233333 894.183333,101.083333 893.35,100.25 C892.516667,99.4166667 891.4,99 890,99 Z M547,100 L533,100 C528.733333,100 525.4,101.15 523,103.45 C520.682759,105.67069 519.484185,108.683769 519.404281,112.489239 L519.4,112.9 L519.4,156.8 C519.4,160.933333 520.616667,164.166667 523.05,166.5 C525.399425,168.752874 528.665537,169.918153 532.848335,169.995838 L533.3,170 L547,170 C554.2,170 560.45,168.583333 565.75,165.75 C571.05,162.916667 575.116667,158.883333 577.95,153.65 C580.783333,148.416667 582.2,142.233333 582.2,135.1 C582.2,127.966667 580.766667,121.766667 577.9,116.5 C575.033333,111.233333 570.95,107.166667 565.65,104.3 C560.520968,101.525806 554.533455,100.093965 547.687461,100.004475 L547,100 Z M628.2,106.8 C633.533333,106.8 638.266667,107.9 642.4,110.1 C646.533333,112.3 649.766667,115.516667 652.1,119.75 C654.433333,123.983333 655.6,129.066667 655.6,135 C655.6,140.8 654.466667,145.833333 652.2,150.1 C649.933333,154.366667 646.783333,157.616667 642.75,159.85 C638.716667,162.083333 634.066667,163.2 628.8,163.2 C623.533333,163.2 618.883333,162.083333 614.85,159.85 C610.816667,157.616667 607.683333,154.366667 605.45,150.1 C603.216667,145.833333 602.1,140.8 602.1,135 C602.1,129.2 603.183333,124.183333 605.35,119.95 C607.516667,115.716667 610.583333,112.466667 614.55,110.2 C618.516667,107.933333 623.066667,106.8 628.2,106.8 Z M546,107.6 C554.6,107.6 561.2,109.966667 565.8,114.7 C570.4,119.433333 572.7,126.233333 572.7,135.1 C572.7,143.966667 570.416667,150.733333 565.85,155.4 C561.283333,160.066667 554.666667,162.4 546,162.4 L533.8,162.4 C532.266667,162.4 531.05,161.9 530.15,160.9 C529.30625,159.9625 528.858008,158.732031 528.805273,157.208594 L528.8,156.9 L528.8,113.1 C528.8,111.433333 529.25,110.1 530.15,109.1 C530.99375,108.1625 532.11582,107.664453 533.516211,107.605859 L533.8,107.6 L546,107.6 Z" id="Dotmh-BG" fill="#273440"></path>
        <path d="M381.095835,403.557666 C383.375028,403.557666 385.491422,403.150611 387.445016,402.336499 C389.398611,401.522388 391.087656,400.402985 392.512152,398.97829 C393.936647,397.553596 395.055894,395.864315 395.869892,393.910448 C396.683889,391.956581 397.090888,389.839891 397.090888,387.56038 L397.090888,387.56038 L397.090888,316 C397.090888,313.8019 396.683889,311.746269 395.869892,309.833107 C395.055894,307.919946 393.936647,306.230665 392.512152,304.765265 C391.087656,303.299864 389.398611,302.139756 387.445016,301.284939 C385.491422,300.430122 383.375028,300.002714 381.095835,300.002714 L381.095835,300.002714 L280.852028,300.002714 L280.852028,331.997286 L365.344981,331.997286 L365.344981,371.807327 L266.56637,371.807327 C262.496382,371.807327 259.342141,370.687924 257.103647,368.449118 C254.865154,366.210312 253.745907,363.055631 253.745907,358.985075 L253.745907,358.985075 L253.745907,273.259159 C253.745907,268.944369 254.844804,265.687924 257.042598,263.489824 C259.240391,261.291723 262.414982,260.192673 266.56637,260.192673 L266.56637,260.192673 L395.625693,260.192673 L395.625693,228.442334 L266.56637,228.442334 C261.112586,228.442334 256.2286,229.134328 251.914413,230.518318 C247.600225,231.902307 243.794786,233.75441 240.498096,236.074627 C237.201406,238.394844 234.372764,241.061058 232.012171,244.07327 C229.651578,247.085482 227.738683,250.240163 226.273488,253.537313 C224.808292,256.834464 223.729745,260.17232 223.037847,263.550882 C222.345949,266.929444 222,270.084125 222,273.014925 L222,273.014925 L222,358.985075 C222,364.43962 222.691898,369.34464 224.075694,373.700136 C225.45949,378.055631 227.311334,381.881954 229.631228,385.179104 C231.951121,388.476255 234.616963,391.284939 237.628754,393.605156 C240.640546,395.925373 243.794786,397.818182 247.091477,399.283582 C250.388167,400.748982 253.725557,401.82768 257.103647,402.519674 C260.481738,403.211669 263.635978,403.557666 266.56637,403.557666 L266.56637,403.557666 L381.095835,403.557666 Z M465.504132,403.557666 L465.504132,331.997286 L576.981106,331.997286 L576.981106,403.557666 L608.727014,403.557666 L608.727014,228.442334 L576.981106,228.442334 L576.981106,300.002714 L465.504132,300.002714 L465.504132,228.442334 L433.758225,228.442334 L433.758225,403.557666 L465.504132,403.557666 Z M759.923816,406 C770.424385,406 780.131307,404.188602 789.044581,400.565807 C797.957855,396.943012 805.670482,391.87517 812.182463,385.36228 C818.694444,378.849389 823.781929,371.115332 827.444918,362.160109 C831.107908,353.204885 832.939402,343.394844 832.939402,332.729986 L832.939402,332.729986 L832.939402,299.270014 C832.939402,288.686567 831.107908,278.896879 827.444918,269.90095 C823.781929,260.90502 818.694444,253.170963 812.182463,246.698779 C805.670482,240.226594 797.957855,235.158752 789.044581,231.495251 C780.131307,227.83175 770.424385,226 759.923816,226 L759.923816,226 L716.944741,226 C706.444172,226 696.7169,227.83175 687.762927,231.495251 C678.808953,235.158752 671.075975,240.226594 664.563994,246.698779 C658.052013,253.170963 652.944178,260.90502 649.240489,269.90095 C645.5368,278.896879 643.684955,288.686567 643.684955,299.270014 L643.684955,299.270014 L643.684955,332.729986 C643.684955,343.394844 645.5368,353.204885 649.240489,362.160109 C652.944178,371.115332 658.052013,378.849389 664.563994,385.36228 C671.075975,391.87517 678.808953,396.943012 687.762927,400.565807 C696.7169,404.188602 706.444172,406 716.944741,406 L716.944741,406 L759.923816,406 Z M759.679616,374.249661 L716.944741,374.249661 C710.758359,374.249661 705.121426,373.252374 700.033941,371.257802 C694.946456,369.263229 690.571218,366.454545 686.908229,362.83175 C683.24524,359.208955 680.416598,354.85346 678.422304,349.765265 C676.42801,344.677069 675.430863,338.998643 675.430863,332.729986 L675.430863,332.729986 L675.430863,299.270014 C675.430863,293.001357 676.42801,287.322931 678.422304,282.234735 C680.416598,277.14654 683.24524,272.791045 686.908229,269.16825 C690.571218,265.545455 694.946456,262.736771 700.033941,260.742198 C705.121426,258.747626 710.758359,257.750339 716.944741,257.750339 L716.944741,257.750339 L759.923816,257.750339 C766.028798,257.750339 771.625032,258.747626 776.712517,260.742198 C781.800002,262.736771 786.154889,265.545455 789.777178,269.16825 C793.399468,272.791045 796.20776,277.14654 798.202054,282.234735 C800.196348,287.322931 801.193495,293.001357 801.193495,299.270014 L801.193495,299.270014 L801.193495,332.729986 C801.193495,338.998643 800.196348,344.677069 798.202054,349.765265 C796.20776,354.85346 793.379118,359.208955 789.716129,362.83175 C786.053139,366.454545 781.677902,369.263229 776.590417,371.257802 C771.502932,373.252374 765.865998,374.249661 759.679616,374.249661 L759.679616,374.249661 Z M984.868802,403.557666 C988.287592,403.557666 991.930232,403.150611 995.79672,402.336499 C999.663209,401.522388 1003.46865,400.260516 1007.21304,398.550882 C1010.95743,396.841248 1014.57972,394.643148 1018.07991,391.956581 C1021.58009,389.270014 1024.63259,386.013569 1027.23738,382.187246 C1029.84217,378.360923 1031.93821,373.944369 1033.52551,368.937585 C1035.11281,363.930801 1035.90645,358.29308 1035.90645,352.024423 C1035.90645,345.755767 1035.13316,340.138399 1033.58656,335.17232 C1032.03996,330.206242 1029.94392,325.810041 1027.29843,321.983718 C1024.65294,318.157395 1021.62079,314.880597 1018.202,312.153324 C1014.78321,309.426052 1011.18128,307.166893 1007.39619,305.375848 C1003.6111,303.584803 999.805659,302.261872 995.97987,301.407056 C992.154081,300.552239 988.531792,300.084125 985.113002,300.002714 L985.113002,300.002714 L911.853216,300.002714 C905.829633,300.002714 901.128797,298.232022 897.750707,294.690638 C894.372617,291.149254 892.683572,286.325645 892.683572,280.21981 C892.683572,274.195387 894.372617,269.351425 897.750707,265.687924 C901.128797,262.024423 905.829633,260.192673 911.853216,260.192673 L911.853216,260.192673 L1019.9114,260.192673 L1019.9114,228.442334 L911.853216,228.442334 C906.725031,228.442334 901.189847,229.358209 895.247664,231.189959 C889.305482,233.02171 883.790648,235.993216 878.703163,240.104478 C873.615677,244.215739 869.38289,249.548168 866.0048,256.101764 C862.62671,262.65536 860.937664,270.694708 860.937664,280.21981 C860.937664,289.744912 862.62671,297.804613 866.0048,304.398915 C869.38289,310.993216 873.615677,316.325645 878.703163,320.396201 C883.790648,324.466757 889.305482,327.41791 895.247664,329.249661 C901.189847,331.081411 906.725031,331.997286 911.853216,331.997286 L911.853216,331.997286 L984.868802,331.997286 C987.799194,331.997286 990.465036,332.485753 992.866329,333.462687 C995.267622,334.43962 997.302616,335.823609 998.971311,337.614654 C1000.64001,339.405699 1001.92205,341.522388 1002.81745,343.964722 C1003.71285,346.407056 1004.16055,349.093623 1004.16055,352.024423 C1004.16055,358.048847 1002.4715,362.852103 999.093411,366.434193 C995.715321,370.016282 990.973784,371.807327 984.868802,371.807327 L984.868802,371.807327 L862.40286,371.807327 L862.40286,403.557666 L984.868802,403.557666 Z M1152.06066,403.557666 L1152.06066,260.192673 L1222.02375,260.192673 L1222.02375,228.442334 L1050.22956,228.442334 L1050.22956,260.192673 L1120.31475,260.192673 L1120.31475,403.557666 L1152.06066,403.557666 Z M1409.48415,403.557666 L1409.48415,371.807327 L1280.42483,371.807327 L1280.42483,228.442334 L1248.67892,228.442334 L1248.67892,387.56038 C1248.67892,389.839891 1249.08592,391.956581 1249.89992,393.910448 C1250.71391,395.864315 1251.83316,397.553596 1253.25766,398.97829 C1254.68215,400.402985 1256.3712,401.522388 1258.32479,402.336499 C1260.27839,403.150611 1262.39478,403.557666 1264.67397,403.557666 L1264.67397,403.557666 L1409.48415,403.557666 Z M1468.12942,403.557666 L1468.12942,228.442334 L1436.38351,228.442334 L1436.38351,403.557666 L1468.12942,403.557666 Z M1667.55558,406 C1669.75338,406 1671.82907,405.592944 1673.78266,404.778833 C1675.73626,403.964722 1677.4253,402.845319 1678.8498,401.420624 C1680.2743,399.995929 1681.41389,398.306649 1682.26859,396.352782 C1683.12329,394.398915 1683.55064,392.282225 1683.55064,390.002714 L1683.55064,390.002714 L1683.55064,228.442334 L1651.80473,228.442334 L1651.80473,351.78019 L1535.81007,230.762551 C1533.53087,228.401628 1530.80398,226.915875 1527.62939,226.305292 C1524.4548,225.694708 1521.36161,226 1518.34982,227.221167 C1515.50083,228.523745 1513.16058,230.497965 1511.32909,233.143826 C1509.49759,235.789688 1508.58185,238.740841 1508.58185,241.997286 L1508.58185,241.997286 L1508.58185,403.557666 L1540.32775,403.557666 L1540.32775,280.21981 L1656.32242,401.359566 C1657.86901,402.987788 1659.63946,404.16825 1661.63375,404.90095 C1663.62804,405.63365 1665.60199,406 1667.55558,406 Z M1882,403.557666 L1882,371.807327 L1767.71473,371.807327 C1763.48195,371.807327 1760.26666,370.708277 1758.06886,368.510176 C1755.87107,366.312076 1754.77217,363.137042 1754.77217,358.985075 L1754.77217,358.985075 L1754.77217,260.192673 L1882,260.192673 L1882,228.442334 L1739.02132,228.442334 C1736.74212,228.442334 1734.62573,228.849389 1732.67214,229.663501 C1730.71854,230.477612 1729.0295,231.617368 1727.605,233.082768 C1726.18051,234.548168 1725.06126,236.257802 1724.24726,238.211669 C1723.43326,240.165536 1723.02626,242.24152 1723.02626,244.43962 L1723.02626,244.43962 L1723.02626,358.985075 C1723.02626,367.207598 1724.51181,374.147897 1727.4829,379.80597 C1730.45399,385.464043 1734.15768,390.063772 1738.59397,393.605156 C1743.03026,397.14654 1747.85319,399.690638 1753.06278,401.237449 C1758.27236,402.784261 1763.07495,403.557666 1767.47053,403.557666 L1767.47053,403.557666 L1882,403.557666 Z M1867.71434,331.997286 L1867.71434,300.002714 L1767.47053,300.002714 L1767.47053,331.997286 L1867.71434,331.997286 Z" id="GHOSTLINE-background" stroke="#FF26A6" stroke-width="10" fill-rule="nonzero"></path>
        <path d="M539.557604,417 L539.557604,292.559275 L650,292.559275 L650,265 L525.884793,265 C523.906298,265 522.069124,265.353324 520.373272,266.059972 C518.677419,266.76662 517.211214,267.755927 515.974654,269.027894 C514.738095,270.299861 513.766513,271.783821 513.059908,273.479777 C512.353303,275.175732 512,276.977685 512,278.885635 L512,278.885635 L512,417 L539.557604,417 Z M637,355 L637,327 L550,327 L550,355 L637,355 Z M694.584034,417 L694.584034,340.723404 C694.584034,337.106383 695.538866,334.358156 697.448529,332.478723 C699.358193,330.599291 702.187325,329.659574 705.935924,329.659574 L705.935924,329.659574 L768,329.659574 L768,302 L705.723739,302 C703.177521,302 700.4368,302.301418 697.501576,302.904255 C694.566352,303.507092 691.666492,304.446809 688.801996,305.723404 C685.9375,307 683.196779,308.648936 680.579832,310.670213 C677.962885,312.691489 675.646534,315.138298 673.630777,318.010638 C671.615021,320.882979 670.005952,324.198582 668.803571,327.957447 C667.60119,331.716312 667,335.971631 667,340.723404 L667,340.723404 L667,417 L694.584034,417 Z M859.934177,417 C866.881013,417 872.782278,415.723404 877.637975,413.170213 C882.493671,410.617021 886.427848,407.443262 889.440506,403.648936 C892.453165,399.85461 894.632911,395.741135 895.979747,391.308511 C897.326582,386.875887 898,382.744681 898,378.914894 L898,378.914894 L898,340.085106 C898,333.134752 896.724051,327.230496 894.172152,322.37234 C891.620253,317.514184 888.448101,313.578014 884.655696,310.56383 C880.863291,307.549645 876.751899,305.368794 872.321519,304.021277 C867.891139,302.673759 863.762025,302 859.934177,302 L859.934177,302 L799.220253,302 L799.220253,328.276596 L859.934177,328.276596 C863.336709,328.276596 866.15443,329.340426 868.387342,331.468085 C870.620253,333.595745 871.736709,336.468085 871.736709,340.085106 L871.736709,340.085106 L871.736709,378.702128 C871.736709,382.106383 870.708861,384.943262 868.653165,387.212766 C866.597468,389.48227 863.691139,390.617021 859.934177,390.617021 L859.934177,390.617021 L810.278481,390.617021 C807.017722,390.617021 804.2,389.606383 801.825316,387.585106 C799.450633,385.56383 798.263291,382.744681 798.263291,379.12766 C798.263291,375.723404 799.291139,372.868794 801.346835,370.56383 C803.402532,368.258865 806.308861,367.106383 810.065823,367.106383 L810.065823,367.106383 L859.934177,367.106383 L859.934177,340.723404 L810.065823,340.723404 C803.118987,340.723404 797.217722,342 792.362025,344.553191 C787.506329,347.106383 783.572152,350.280142 780.559494,354.074468 C777.546835,357.868794 775.367089,362 774.020253,366.468085 C772.673418,370.93617 772,375.085106 772,378.914894 C772,385.865248 773.275949,391.769504 775.827848,396.62766 C778.379747,401.485816 781.551899,405.421986 785.344304,408.43617 C789.136709,411.450355 793.248101,413.631206 797.678481,414.978723 C802.108861,416.326241 806.237975,417 810.065823,417 L810.065823,417 L859.934177,417 Z M952.509677,417 L952.509677,329.659574 L988.272258,329.659574 C992.010753,329.659574 994.832258,330.599291 996.736774,332.478723 C998.64129,334.358156 999.593548,337.106383 999.593548,340.723404 L999.593548,340.723404 L999.593548,417 L1027.10323,417 L1027.10323,340.723404 C1027.10323,336.751773 1026.64473,333.06383 1025.72774,329.659574 L1025.72774,329.659574 L1050.48645,329.659574 C1054.22495,329.659574 1056.99355,330.599291 1058.79226,332.478723 C1060.59097,334.358156 1061.49032,337.106383 1061.49032,340.723404 L1061.49032,340.723404 L1061.49032,417 L1089,417 L1089,340.723404 C1089,335.971631 1088.40043,331.716312 1087.20129,327.957447 C1086.00215,324.198582 1084.41505,320.882979 1082.44,318.010638 C1080.46495,315.138298 1078.17247,312.691489 1075.56258,310.670213 C1072.95269,308.648936 1070.21935,307 1067.36258,305.723404 C1064.50581,304.446809 1061.6314,303.507092 1058.73935,302.904255 C1055.84731,302.301418 1053.09634,302 1050.48645,302 L1050.48645,302 L1013.24258,302 L1013.24258,310.510638 C1009.29247,307.531915 1005.13075,305.368794 1000.75742,304.021277 C996.384086,302.673759 992.292903,302 988.483871,302 L988.483871,302 L938.860645,302 C936.956129,302 935.157419,302.35461 933.464516,303.06383 C931.771613,303.77305 930.290323,304.748227 929.020645,305.989362 C927.750968,307.230496 926.763441,308.684397 926.058065,310.351064 C925.352688,312.01773 925,313.808511 925,315.723404 L925,315.723404 L925,417 L952.509677,417 Z M1201.93418,417 L1201.93418,390.617021 L1152.27848,390.617021 C1148.87595,390.617021 1146.02278,389.588652 1143.71899,387.531915 C1141.41519,385.475177 1140.26329,382.602837 1140.26329,378.914894 L1140.26329,378.914894 L1140.26329,340.297872 C1140.26329,336.893617 1141.29114,334.039007 1143.34684,331.734043 C1145.40253,329.429078 1148.30886,328.276596 1152.06582,328.276596 L1152.06582,328.276596 L1201.93418,328.276596 C1205.19494,328.276596 1207.97722,329.304965 1210.28101,331.361702 C1212.58481,333.41844 1213.73671,336.255319 1213.73671,339.87234 C1213.73671,343.276596 1212.70886,346.131206 1210.65316,348.43617 C1208.59747,350.741135 1205.69114,351.893617 1201.93418,351.893617 L1201.93418,351.893617 L1152.06582,351.893617 L1152.06582,378.170213 L1201.93418,378.170213 C1208.88101,378.170213 1214.78228,376.893617 1219.63797,374.340426 C1224.49367,371.787234 1228.42785,368.613475 1231.44051,364.819149 C1234.45316,361.024823 1236.63291,356.911348 1237.97975,352.478723 C1239.32658,348.046099 1240,343.914894 1240,340.085106 C1240,333.134752 1238.72405,327.230496 1236.17215,322.37234 C1233.62025,317.514184 1230.4481,313.578014 1226.6557,310.56383 C1222.86329,307.549645 1218.7519,305.368794 1214.32152,304.021277 C1209.89114,302.673759 1205.76203,302 1201.93418,302 L1201.93418,302 L1152.06582,302 C1145.11899,302 1139.21772,303.276596 1134.36203,305.829787 C1129.50633,308.382979 1125.57215,311.556738 1122.55949,315.351064 C1119.54684,319.14539 1117.36709,323.258865 1116.02025,327.691489 C1114.67342,332.124113 1114,336.255319 1114,340.085106 L1114,340.085106 L1114,378.914894 C1114,385.865248 1115.27595,391.769504 1117.82785,396.62766 C1120.37975,401.485816 1123.5519,405.421986 1127.3443,408.43617 C1131.13671,411.450355 1135.2481,413.631206 1139.67848,414.978723 C1144.10886,416.326241 1148.23797,417 1152.06582,417 L1152.06582,417 L1201.93418,417 Z M1354.48258,417 C1359.29607,417 1364.41039,415.529584 1369.82556,412.588753 C1375.24073,409.647922 1380.79747,405.573276 1386.49579,400.364815 C1392.1941,395.156355 1397.94551,388.955807 1403.75,381.763171 C1409.55449,374.570536 1415.23511,366.722413 1420.79185,358.218805 C1426.3486,349.715196 1431.67528,340.697828 1436.77191,331.166699 C1441.86854,321.635571 1446.61124,311.945001 1451,302.094987 L1451,302.094987 L1420.10169,302.094987 C1416.63315,309.039601 1413.07612,316.001931 1409.43062,322.981976 C1405.78511,329.962022 1401.89185,336.835772 1397.75084,343.603227 C1393.60983,350.370682 1389.13258,356.943263 1384.3191,363.32097 C1379.50562,369.698676 1374.12584,375.757498 1368.17978,381.497434 L1368.17978,381.497434 L1368.17978,315.807056 C1368.17978,313.043383 1367.41882,310.510017 1365.89691,308.206956 C1364.375,305.903895 1362.30449,304.220889 1359.68539,303.157938 C1357.06629,302.024124 1354.3941,301.722954 1351.66882,302.25443 C1348.94354,302.785905 1346.58989,304.043731 1344.60787,306.027906 L1344.60787,306.027906 L1289.60674,367.572774 L1289.60674,302.094987 L1262,302.094987 L1262,403.075341 C1262,405.059516 1262.37163,406.901965 1263.11489,408.602686 C1263.85815,410.303408 1264.86685,411.773824 1266.14101,413.013933 C1267.41517,414.254043 1268.88399,415.228415 1270.54747,415.937049 C1272.21096,416.645683 1273.99831,417 1275.90955,417 C1277.67921,417 1279.39579,416.663399 1281.05927,415.990196 C1282.72275,415.316994 1284.26236,414.271759 1285.67809,412.854491 L1285.67809,412.854491 L1340.46685,351.522213 L1340.46685,403.075341 C1340.46685,405.059516 1340.82079,406.901965 1341.52865,408.602686 C1342.23652,410.303408 1343.22753,411.773824 1344.50169,413.013933 C1345.77584,414.254043 1347.26236,415.228415 1348.96124,415.937049 C1350.66011,416.645683 1352.50056,417 1354.48258,417 Z M1548.30634,417 C1550.92126,417 1553.69519,416.698582 1556.62813,416.095745 C1559.56107,415.492908 1562.45868,414.553191 1565.32095,413.276596 C1568.18322,412 1570.92181,410.351064 1573.53673,408.329787 C1576.15164,406.308511 1578.44853,403.861702 1580.42738,400.989362 C1582.40623,398.117021 1583.99638,394.783688 1585.19783,390.989362 C1586.39928,387.195035 1587,382.921986 1587,378.170213 L1587,378.170213 L1587,340.723404 C1587,336.822695 1586.31093,332.602837 1584.9328,328.06383 C1583.55467,323.524823 1581.34613,319.322695 1578.30718,315.457447 C1575.26822,311.592199 1571.27518,308.382979 1566.32805,305.829787 C1561.38091,303.276596 1555.37368,302 1548.30634,302 L1548.30634,302 L1498.58765,302 C1494.77129,302 1490.60156,302.673759 1486.07846,304.021277 C1481.55537,305.368794 1477.36797,307.585106 1473.51628,310.670213 C1469.66458,313.755319 1466.44894,317.762411 1463.86937,322.691489 C1461.28979,327.620567 1460,333.631206 1460,340.723404 L1460,340.723404 L1460,378.170213 C1460,385.333333 1461.28979,391.379433 1463.86937,396.308511 C1466.44894,401.237589 1469.66458,405.244681 1473.51628,408.329787 C1477.36797,411.414894 1481.55537,413.631206 1486.07846,414.978723 C1490.60156,416.326241 1494.77129,417 1498.58765,417 L1498.58765,417 L1548.30634,417 Z M1548.84956,389 L1499.25664,389 C1495.57522,389 1492.77876,388.053476 1490.86726,386.160428 C1488.95575,384.26738 1488,381.532977 1488,377.957219 L1488,377.957219 L1488,340.937611 C1488,337.361854 1488.95575,334.644979 1490.86726,332.786988 C1492.77876,330.928996 1495.57522,330 1499.25664,330 L1499.25664,330 L1548.84956,330 C1552.46018,330 1555.22124,330.911468 1557.13274,332.734403 C1559.04425,334.557338 1560,337.361854 1560,341.14795 L1560,341.14795 L1560,377.957219 C1560,381.532977 1559.07965,384.26738 1557.23894,386.160428 C1555.39823,388.053476 1552.60177,389 1548.84956,389 L1548.84956,389 Z M1640.58403,417 L1640.58403,340.723404 C1640.58403,337.106383 1641.53887,334.358156 1643.44853,332.478723 C1645.35819,330.599291 1648.18732,329.659574 1651.93592,329.659574 L1651.93592,329.659574 L1714,329.659574 L1714,302 L1651.72374,302 C1649.17752,302 1646.4368,302.301418 1643.50158,302.904255 C1640.56635,303.507092 1637.66649,304.446809 1634.802,305.723404 C1631.9375,307 1629.19678,308.648936 1626.57983,310.670213 C1623.96289,312.691489 1621.64653,315.138298 1619.63078,318.010638 C1617.61502,320.882979 1616.00595,324.198582 1614.80357,327.957447 C1613.60119,331.716312 1613,335.971631 1613,340.723404 L1613,340.723404 L1613,417 L1640.58403,417 Z M1763,417 L1763,254 L1735,254 L1735,417 L1763,417 Z M1870,417 L1804.90688,354.349954 L1870,302 L1825.75369,302 L1775.23207,342.669437 C1773.67211,343.872884 1772.44895,345.341797 1771.56261,347.076177 C1770.67626,348.810557 1770.16218,350.668821 1770.02037,352.65097 C1769.80764,356.89843 1771.26125,360.437981 1774.38118,363.269621 L1774.38118,363.269621 L1830.11451,417 L1870,417 Z" id="Framework" fill="#27AAD1" fill-rule="nonzero"></path>
        <g id="GHOSTLINE-foreground" transform="translate(488.000000, 254.000000)">
            <mask id="mask-2" fill="white">
                <use xlink:href="#path-1"></use>
            </mask>
            <g id="Mask"></g>
            <path d="M-107.390005,150.047901 C-105.110812,150.047901 -102.994418,149.640845 -101.040823,148.826734 C-99.0872291,148.012622 -97.3981841,146.893219 -95.9736882,145.468525 C-94.5491924,144.04383 -93.4299457,142.354549 -92.615948,140.400682 C-91.8019504,138.446815 -91.3949516,136.330126 -91.3949516,134.050614 L-91.3949516,134.050614 L-91.3949516,62.4902344 C-91.3949516,60.292134 -91.8019504,58.236503 -92.615948,56.3233416 C-93.4299457,54.4101801 -94.5491924,52.7208992 -95.9736882,51.255499 C-97.3981841,49.7900987 -99.0872291,48.6299901 -101.040823,47.7751733 C-102.994418,46.9203565 -105.110812,46.4929481 -107.390005,46.4929481 L-107.390005,46.4929481 L-207.633812,46.4929481 L-207.633812,78.4875207 L-123.140859,78.4875207 L-123.140859,118.297561 L-221.91947,118.297561 C-225.989458,118.297561 -229.143699,117.178158 -231.382192,114.939352 C-233.620686,112.700546 -234.739933,109.545865 -234.739933,105.475309 L-234.739933,105.475309 L-234.739933,19.7493931 C-234.739933,15.4346034 -233.641036,12.1781584 -231.443242,9.98005798 C-229.245449,7.78195758 -226.070858,6.68290737 -221.91947,6.68290737 L-221.91947,6.68290737 L-92.8601473,6.68290737 L-92.8601473,-25.0674318 L-221.91947,-25.0674318 C-227.373254,-25.0674318 -232.25724,-24.3754373 -236.571427,-22.9914481 C-240.885615,-21.607459 -244.691054,-19.7553559 -247.987744,-17.4351388 C-251.284434,-15.1149217 -254.113076,-12.4487073 -256.473669,-9.43649561 C-258.834262,-6.42428394 -260.747157,-3.2696028 -262.212352,0.0275478078 C-263.677548,3.32469842 -264.756095,6.66255459 -265.447993,10.0411163 C-266.139891,13.4196781 -266.48584,16.5743592 -266.48584,19.5051597 L-266.48584,19.5051597 L-266.48584,105.475309 C-266.48584,110.929854 -265.793942,115.834875 -264.410146,120.19037 C-263.02635,124.545865 -261.174505,128.372188 -258.854612,131.669339 C-256.534719,134.966489 -253.868877,137.775173 -250.857086,140.09539 C-247.845294,142.415608 -244.691054,144.308416 -241.394363,145.773816 C-238.097673,147.239217 -234.760283,148.317914 -231.382192,149.009909 C-228.004102,149.701903 -224.849862,150.047901 -221.91947,150.047901 L-221.91947,150.047901 L-107.390005,150.047901 Z M-22.9817076,150.047901 L-22.9817076,78.4875207 L88.4952666,78.4875207 L88.4952666,150.047901 L120.241174,150.047901 L120.241174,-25.0674318 L88.4952666,-25.0674318 L88.4952666,46.4929481 L-22.9817076,46.4929481 L-22.9817076,-25.0674318 L-54.7276148,-25.0674318 L-54.7276148,150.047901 L-22.9817076,150.047901 Z M271.437976,152.490234 C281.938545,152.490234 291.645467,150.678837 300.558741,147.056042 C309.472015,143.433247 317.184642,138.365404 323.696623,131.852514 C330.208604,125.339624 335.296089,117.605567 338.959079,108.650343 C342.622068,99.695119 344.453562,89.8850783 344.453562,79.2202208 L344.453562,79.2202208 L344.453562,45.7602479 C344.453562,35.1768015 342.622068,25.3871136 338.959079,16.3911842 C335.296089,7.39525473 330.208604,-0.33880226 323.696623,-6.81098679 C317.184642,-13.2831713 309.472015,-18.3510139 300.558741,-22.0145146 C291.645467,-25.6780153 281.938545,-27.5097656 271.437976,-27.5097656 L271.437976,-27.5097656 L228.458901,-27.5097656 C217.958332,-27.5097656 208.231061,-25.6780153 199.277087,-22.0145146 C190.323113,-18.3510139 182.590136,-13.2831713 176.078155,-6.81098679 C169.566174,-0.33880226 164.458339,7.39525473 160.754649,16.3911842 C157.05096,25.3871136 155.199116,35.1768015 155.199116,45.7602479 L155.199116,45.7602479 L155.199116,79.2202208 C155.199116,89.8850783 157.05096,99.695119 160.754649,108.650343 C164.458339,117.605567 169.566174,125.339624 176.078155,131.852514 C182.590136,138.365404 190.323113,143.433247 199.277087,147.056042 C208.231061,150.678837 217.958332,152.490234 228.458901,152.490234 L228.458901,152.490234 L271.437976,152.490234 Z M271.193777,120.739895 L228.458901,120.739895 C222.27252,120.739895 216.635586,119.742609 211.548101,117.748036 C206.460616,115.753464 202.085379,112.94478 198.422389,109.321985 C194.7594,105.69919 191.930758,101.343694 189.936464,96.255499 C187.94217,91.1673036 186.945023,85.4888775 186.945023,79.2202208 L186.945023,79.2202208 L186.945023,45.7602479 C186.945023,39.4915912 187.94217,33.8131652 189.936464,28.7249698 C191.930758,23.6367744 194.7594,19.2812792 198.422389,15.658484 C202.085379,12.0356889 206.460616,9.22700507 211.548101,7.23243248 C216.635586,5.23785988 222.27252,4.24057359 228.458901,4.24057359 L228.458901,4.24057359 L271.437976,4.24057359 C277.542958,4.24057359 283.139192,5.23785988 288.226677,7.23243248 C293.314162,9.22700507 297.669049,12.0356889 301.291339,15.658484 C304.913628,19.2812792 307.72192,23.6367744 309.716214,28.7249698 C311.710508,33.8131652 312.707655,39.4915912 312.707655,45.7602479 L312.707655,45.7602479 L312.707655,79.2202208 C312.707655,85.4888775 311.710508,91.1673036 309.716214,96.255499 C307.72192,101.343694 304.893278,105.69919 301.230289,109.321985 C297.567299,112.94478 293.192062,115.753464 288.104577,117.748036 C283.017092,119.742609 277.380158,120.739895 271.193777,120.739895 L271.193777,120.739895 Z M496.382962,150.047901 C499.801752,150.047901 503.444392,149.640845 507.31088,148.826734 C511.177369,148.012622 514.982808,146.75075 518.727197,145.041116 C522.471586,143.331483 526.093876,141.133382 529.594065,138.446815 C533.094255,135.760248 536.146746,132.503803 538.751539,128.67748 C541.356331,124.851157 543.452375,120.434603 545.03967,115.427819 C546.626966,110.421035 547.420613,104.783314 547.420613,98.5146577 C547.420613,92.246001 546.647315,86.6286333 545.10072,81.6625546 C543.554124,76.6964759 541.458081,72.3002751 538.812588,68.4739521 C536.167096,64.6476292 533.134955,61.3708314 529.716165,58.6435587 C526.297375,55.9162859 522.695435,53.6571272 518.910347,51.8660824 C515.125258,50.0750376 511.319819,48.7521068 507.49403,47.89729 C503.668241,47.0424732 500.045952,46.5743592 496.627162,46.4929481 L496.627162,46.4929481 L423.367376,46.4929481 C417.343793,46.4929481 412.642957,44.7222561 409.264867,41.1808721 C405.886777,37.6394881 404.197732,32.8158789 404.197732,26.7100444 C404.197732,20.6856211 405.886777,15.8416591 409.264867,12.1781584 C412.642957,8.51465771 417.343793,6.68290737 423.367376,6.68290737 L423.367376,6.68290737 L531.42556,6.68290737 L531.42556,-25.0674318 L423.367376,-25.0674318 C418.239191,-25.0674318 412.704007,-24.1515567 406.761824,-22.3198063 C400.819642,-20.488056 395.304808,-17.5165499 390.217323,-13.405288 C385.129838,-9.29402614 380.89705,-3.96159738 377.51896,2.59199828 C374.14087,9.14559394 372.451825,17.1849427 372.451825,26.7100444 C372.451825,36.2351462 374.14087,44.2948477 377.51896,50.8891489 C380.89705,57.4834501 385.129838,62.8158789 390.217323,66.8864352 C395.304808,70.9569915 400.819642,73.9081448 406.761824,75.7398952 C412.704007,77.5716455 418.239191,78.4875207 423.367376,78.4875207 L423.367376,78.4875207 L496.382962,78.4875207 C499.313354,78.4875207 501.979196,78.9759874 504.380489,79.9529209 C506.781782,80.9298545 508.816776,82.3138436 510.485471,84.1048884 C512.154166,85.8959332 513.436213,88.0126224 514.33161,90.4549562 C515.227007,92.89729 515.674706,95.5838572 515.674706,98.5146577 C515.674706,104.539081 513.985661,109.342337 510.607571,112.924427 C507.229481,116.506517 502.487945,118.297561 496.382962,118.297561 L496.382962,118.297561 L373.91702,118.297561 L373.91702,150.047901 L496.382962,150.047901 Z M663.574818,150.047901 L663.574818,6.68290737 L733.537913,6.68290737 L733.537913,-25.0674318 L561.743715,-25.0674318 L561.743715,6.68290737 L631.82891,6.68290737 L631.82891,150.047901 L663.574818,150.047901 Z M920.998309,150.047901 L920.998309,118.297561 L791.938986,118.297561 L791.938986,-25.0674318 L760.193079,-25.0674318 L760.193079,134.050614 C760.193079,136.330126 760.600078,138.446815 761.414076,140.400682 C762.228073,142.354549 763.34732,144.04383 764.771816,145.468525 C766.196312,146.893219 767.885357,148.012622 769.838951,148.826734 C771.792545,149.640845 773.908939,150.047901 776.188133,150.047901 L920.998309,150.047901 Z M979.643582,150.047901 L979.643582,-25.0674318 L947.897675,-25.0674318 L947.897675,150.047901 L979.643582,150.047901 Z M1179.06974,152.490234 C1181.26754,152.490234 1183.34323,152.083179 1185.29682,151.269067 C1187.25042,150.454956 1188.93946,149.335553 1190.36396,147.910859 C1191.78846,146.486164 1192.92805,144.796883 1193.78275,142.843016 C1194.63745,140.889149 1195.0648,138.77246 1195.0648,136.492948 L1195.0648,136.492948 L1195.0648,-25.0674318 L1163.31889,-25.0674318 L1163.31889,98.2704243 L1047.32423,-22.7472147 C1045.04503,-25.1081374 1042.31814,-26.5938905 1039.14355,-27.2044739 C1035.96896,-27.8150573 1032.87577,-27.5097656 1029.86398,-26.2885987 C1027.01499,-24.9860207 1024.67474,-23.0118009 1022.84325,-20.3659393 C1021.01175,-17.7200777 1020.09601,-14.7689244 1020.09601,-11.5124793 L1020.09601,-11.5124793 L1020.09601,150.047901 L1051.84191,150.047901 L1051.84191,26.7100444 L1167.83658,147.8498 C1169.38317,149.478023 1171.15362,150.658484 1173.14791,151.391184 C1175.1422,152.123884 1177.11615,152.490234 1179.06974,152.490234 Z M1393.51416,150.047901 L1393.51416,118.297561 L1279.22889,118.297561 C1274.99611,118.297561 1271.78082,117.198511 1269.58302,115.000411 C1267.38523,112.80231 1266.28633,109.627276 1266.28633,105.475309 L1266.28633,105.475309 L1266.28633,6.68290737 L1393.51416,6.68290737 L1393.51416,-25.0674318 L1250.53548,-25.0674318 C1248.25628,-25.0674318 1246.13989,-24.6603762 1244.1863,-23.8462649 C1242.2327,-23.0321537 1240.54366,-21.8923979 1239.11916,-20.4269976 C1237.69467,-18.9615974 1236.57542,-17.2519637 1235.76142,-15.2980967 C1234.94742,-13.3442297 1234.54042,-11.268246 1234.54042,-9.07014554 L1234.54042,-9.07014554 L1234.54042,105.475309 C1234.54042,113.697833 1236.02597,120.638131 1238.99706,126.296205 C1241.96815,131.954278 1245.67184,136.554006 1250.10813,140.09539 C1254.54442,143.636774 1259.36735,146.180872 1264.57694,147.727683 C1269.78652,149.274495 1274.58911,150.047901 1278.98469,150.047901 L1278.98469,150.047901 L1393.51416,150.047901 Z M1379.2285,78.4875207 L1379.2285,46.4929481 L1278.98469,46.4929481 L1278.98469,78.4875207 L1379.2285,78.4875207 Z" id="GHOSTLINE" stroke="#FF26A6" stroke-width="10" fill-rule="nonzero" mask="url(#mask-2)"></path>
        </g>
    </g>
</svg>